<?xml version="1.0" encoding="utf-8"?>
<!-- Generator: Adobe Illustrator 25.2.1, SVG Export Plug-In . SVG Version: 6.00 Build 0)  -->
<svg version="1.1" xmlns="http://www.w3.org/2000/svg" xmlns:xlink="http://www.w3.org/1999/xlink" x="0px" y="0px"
	 viewBox="0 0 595.28 643.59" style="enable-background:new 0 0 595.28 643.59;" xml:space="preserve">
<style type="text/css">
	.st0{fill:#FFFFFF;}
	.st1{fill:#171B4A;stroke:#000000;stroke-miterlimit:10;}
	.st2{fill:none;}
	.st3{font-family:'MyriadPro-Regular';}
	.st4{font-size:100px;}
	.st5{font-size:48px;}
</style>
<g id="Layer_4">
</g>
<g id="Layer_1">
	<path class="st0" d="M495.45,241.86c0,0-8.26-28.97-9.76-32.41s-3.76-7.59-3.76-7.59L476.68,186l-5.26-11.03l-2.25-6.21l-3.76-5.52
		c0,0-5.26-17.93-15.77-22.07c0,0-7.51-6.9-13.52-8.97c0,0,1.5-2.23,0-4.57l-1.5-0.95c0,0,1.5-2.76-1.5-2.76c0,0,0.75-0.48,0-2.31
		l-3.76-1.83l-0.75-1.38l-12.77-6.9l-1.5,0.69l-2.25-2.07l-3,2.07h-0.75c0,0-3.76,2.76-3,4.14c0,0-9.01-3.45-13.52-3.45l-0.75-0.69
		l-6.76-9.66l-12.02,1.38c0,0-9.01-10.34-1.5-20.69v-6.9l1.5-4.83l1.5-3.45l0.75-4.14v-3.45c0,0,5.26-4.83,4.51-6.9
		c0,0,1.5-4.14,1.5-8.28s-3-8.97-3-8.97l-3-3.45l-2.25-4.14v-1.38l-3-4.14c0,0,0.75-4.14-6.76-8.28l-1.5,0.69l-2.25-0.69l-3-1.38
		c0,0-12.02-8.28-31.54-5.52l-3.76,1.38c0,0-3.76,2.76-14.27,2.76c0,0-3,3.45-6.76,4.14s-9.01,10.34-9.01,10.34
		s-6.76,8.97,2.25,12.41l-3,6.21v1.38c0,0-4.51,4.14-3.76,9.66l-1.5,2.07c0,0-1.5,1.38-0.75,2.07l1.5,1.38l0.75,2.07l-0.75,0.69
		l0.75,0.69h3l-6.76,6.9c0,0-5.26,4.83,0,8.28c0,0,2.25,0.69,3,0.69s0.75,0.69,0.75,0.69l-1.5,0.69l-1.5,1.38l-0.75,1.38
		c0,0-1.5,1.38,0.75,1.38s2.25,0,2.25,0l0.75,0.69l0.75,1.38l0.75,2.07c0,0-0.75,3.45,0.75,4.14s0.75,3.45,0.75,3.45v2.07v1.38
		c0,0-5.26,7.59,2.25,10.34s23.28,0.69,23.28,0.69l3.76,3.45v2.76c0,0-10.51,4.83-12.77,5.52s-4.51,2.76-4.51,2.76
		s-2.25,0.69-1.5,5.52s1.5,4.83,1.5,4.83l-9.76,8.28l-10.51,8.28l-3,2.76c0,0-8.26,9.66-8.26,15.86l-0.75,3.45
		c0,0-1.5,7.59-1.5,14.48v3.29l-2.25,15.33l-1.5,8.97l-0.75,6.9l-0.75,11.72l0.75,11.03v1.38c0,0-0.75,3.08-0.75,6.37v1.68
		c0,0-0.75,3.49,0,4.97l-0.33,1.3c0,0-0.33,1.29,0,2.11c0.33,0.82-0.42,4.27-0.42,4.27v1.38c0,0,0,4.83-0.75,6.9
		c-0.75,2.07,0,4.83,0,4.83l-0.75,3.45l-0.75,4.83l-0.75,4.83l-1.5,12.41l-0.75,6.9l-2.25,0.69l-1.5,3.45c0,0-0.75,2.76,0.75,4.14
		s0.75,4.14,0.75,4.14v8.97l0.75,1.38l7.51-0.69l0.75,13.79l0.75,7.59v2.07v2.76c0,0-5.26,4.83-5.26,7.59c0,0,0.75,2.76,3,3.45
		l-1.5,3.45v2.76c0,0-0.75,2.07,0,3.45c0,0-1.5,2.07,0,4.83s2.25,4.83,2.25,4.83v3.45c0,0-1.5,8.97,6.01,11.03
		c7.51,2.07,8.97,0,8.97,0l0.8,6.21l0.75,6.21l0.75,5.52l3,9.66l5.26,17.93l1.5,17.24c0,0,0,4.03,0,6.21c0,5.52,0,5.52,0,5.52v2.07
		l0.75,1.38v1.38v0.69v2.76v1.38c0,0,3,7.59,5.26,6.9c2.25-0.69,0.75,8.97,0.75,8.97v2.07l1.5,4.83v1.38l0.75,3.45v1.38l0.75,2.76
		l0.75,3.45v1.38v1.38l-1.5,7.59v2.76c0,0-2.25,5.52-1.5,8.28c0,0-1.5,2.76,2.25,6.9v3.45l-0.75,4.83l0.75,0.69
		c0,0,0,4.83,1.5,10.34v3.45v6.9v1.38v4.83v2.76l-0.75,4.14c0,0,0,5.52,0.75,8.28v2.76v3.45l0.75,6.9v4.83v6.21l-0.75,4.14
		l-0.75,5.52l-0.27,2.41h50.36l0.23-10.69l0.75-11.03l0.77-11.38l0.73-9.31l0.75-7.59v-6.9v-10.34l-0.75-4.83l0.75-13.79v-9.66
		c0,0,1.5,0,2.25-2.07l2.25-1.38h0.75c0,0,2.25-0.69,3-2.07c0.75-1.38,3.76-6.21,3.76-6.21l19.53-31.03l3.76,11.72l1.5,2.76
		l3.76,15.86v2.07l0.75,2.76l0.75,3.45c0,0,1.21,2.77,1.5,6.21l1.5,8.97l0.75,4.14l0.75,2.76l1.5,11.72l2.25,10.34v4.14l0.75,2.07
		l0.75,6.9l0.75,5.52l0.75,2.76l2.25,11.72l1.5,7.59l3.09,14.83h43.12l-1.15-6.55l-0.75-8.28l-1.5-10.34l-1.5-16.55l-0.75-15.17
		l0.75-5.52l-0.75-8.97v-8.97v-3.45l-3-21.38l-1.5-15.86v-11.03l-0.75-5.52h5.26l8.26-0.69l4.51-0.69l0.75-0.69l0.75,1.38h3.76
		l-0.75-5.52v-2.76h1.5c0,0,2.25-0.69,0-2.07l-2.25-2.07v-2.76l-0.75-11.72l-0.75-8.28l-1.5-20l-2.25-20.69l-1.5-17.93l-1.5-9.66
		l4.51-6.21l3,1.38l3.76,0.69c0,0,3.76-0.69,3.76-1.38l3-1.38l1.5-2.07v-2.76l1.5-0.69l2.25-2.07l0.75-1.38v-1.38l2.25-2.07
		l2.25-1.38l2.25-1.38l2.25-2.07l2.25-2.76l0.75-1.38l1.5-2.76l1.5-2.07v-1.28v-2.36l-0.75-2.57v-1.38v-2.07l-0.75-2.07l-0.75-2.07
		l-0.75-2.76l1.5-2.07l0.75,0.69c0,0,3,3.45,8.26,2.07s7.51-7.59,7.51-7.59s3-5.75,0-9.43s0.75-7.12,0.75-7.12s4.51-5.52,18.02-1.38
		l6.01-4.14l5.26-7.59l-3-3.45l7.51-4.83l3-2.07c0,0,0,1.38,6.76-0.69l9.76-5.52l15.02-8.97l7.51-4.83v-2.19c0,0-1.5-1.95-1.5-2.64
		c0-0.69-3.76-5.52-3.76-5.52l0,0l-9.76-8.97l-3-3.45l-2.25-0.69l-8.26-6.21c0,0-6.76-1.38-7.51,0.69l-9.01,10.34l-7.51,8.97
		l-12.02,15.17l-6.76,7.59l-6.01,6.21l-1.5,6.9l-4.51,4.14v-3.45l-0.75-4.14v-3.45l-0.75-4.14c0,0-0.75-2.07-0.75-3.45v-1.38
		c0,0-1.5-2.07-3-2.76v-8.28v-3.45l-0.75-6.9l-1.5-9.66v-1.38l-0.75-1.38v-6.21l0.75-2.76l-0.75-2.07L495.45,241.86z"/>
	<path class="st1" d="M436.12,246l-3.76,20.69c0,0,5.26,8.28,13.52,62.07l1.5,8.28v3.63l3,12.23l5.26-5.52c0,0,1.5-2.07,5.26-4.14
		c3.76-2.07,4.51-5.52,4.51-5.52v-6.17l1.5-2.11v-5.34l-3.76-7.08c0,0-6.01-7.59-7.51-23.45l0.75-1.38v-3.45l-2.25-4.14l-1.5-6.9
		c0,0,2.25-0.69-6.76-10.34l-2.25-5.52l-5.26-10.34L436.12,246z"/>
	<polygon class="st1" points="285.16,361.17 286.59,361.17 286.59,362.95 285.16,362.06 	"/>
	<polyline class="st1" points="291.17,341.17 290.42,343.24 289.67,346.69 288.92,349.45 288.92,352.21 288.17,354.28 
		287.41,358.42 287.41,359.79 285.16,359.35 285.16,358.23 285.87,357.73 285.87,356.74 285.87,355.75 286.59,353.57 287.41,350.83 
		288.17,348.76 288.92,346.69 288.92,344.62 289.67,342.55 289.67,341.86 290.85,341.17 	"/>
	<polygon class="st1" points="358.01,510.83 366.27,510.14 355.01,528.07 356.51,521.86 357.26,519.1 357.26,517.73 357.26,514.28 	
		"/>
</g>
<g id="dog">
	<path class="st0" d="M92.86,468.73c0,0,3.36,0.67,3.36,1.34c0,0,9.58-2.68,12.19-0.67l1.94-4.02c0,0,1.01-0.34,0.34-5.7
		c0,0,9.42-0.67,16.14,13.41l0.67,0.67l8.07,4.69c0,0,8.07,4.02,16.81,16.77c0,0,20.18,8.72,17.49,10.06c0,0,12.78,1.34,23.54,8.72
		c0,0,24.21,0,39.68,15.43c0,0,1.35,0,3.36,0.67s10.76-8.05,10.76-8.05s10.09-8.72,13.45-24.15c0,0,1.35-6.71,3.36,0
		c0,0,4.04,6.71,1.35,18.78c0,0-2.02,11.4-16.14,24.15c0,0,1.35,2.01,2.69,5.37c0,0,12.11,6.71,16.14,14.08c0,0,6.05,7.38,7.4,15.43
		c0,0,6.05,3.35,10.09,21.46l1.35,3.35l2.69,4.69l3.36,5.37c0,0,3.36,3.35,1.35,8.05v4.02l-0.67,4.02l0.67,4.69
		c0,0,0.67,7.38-7.4,8.72c0,0-6.05,0-6.05-0.67c0,0-2.02,2.01-6.73,0c-4.71-2.01-0.67,0-0.67,0s-2.69,1.34-5.38,0
		c0,0-4.04,1.34-6.05-0.67c0,0-1.35-12.07,2.69-16.1l2.69-0.67l2.02-1.34c0,0,1.35-12.07-5.38-16.77c-6.73-4.69,0-0.67,0-0.67
		s-8.07,0.67-15.47-7.38c0,0-12.11,2.68-21.52-7.38l-4.71-5.37c0,0-6.05-4.69-10.09-0.67l-6.73,2.68c0,0,2.69,8.05,6.05,7.38
		c3.36-0.67,4.04,6.04,4.04,6.04l-4.04,6.71c0,0-3.36,4.69-2.69,8.05v4.69c0,0,0.67,2.68-4.04,4.02c0,0-4.04,2.01-2.69,6.71
		c1.35,4.69-6.05,4.02-6.05,4.02s-3.36,0-2.69-0.67c0,0-0.67,2.01-5.38,0c0,0-2.02,1.34-4.71,0l-2.02,0.67c0,0-0.67,10.06-3.36,9.39
		c0,0-3.36,2.01-9.42,1.34c0,0-8.07,0-8.07-0.67c0,0-4.71,0.67-6.05-1.34c0,0-4.71,0.67-6.73-2.01c0,0-0.67-12.74,9.42-13.41
		c0,0,2.69-7.38,5.38-8.05c0,0,1.35-16.77-4.04-26.83c0,0-19.5,1.34-26.9-4.69c0,0-3.36,8.05,0,32.19c0,0,3.36,5.37-2.69,10.06
		l-1.35,0.67l-0.67,4.02l-0.67,2.68c0,0-6.05,3.35-7.4,3.35c0,0-3.36,1.34-6.05-0.67c0,0-2.02,1.34-4.71,0c0,0-2.69,0.67-5.38-0.67
		c0,0-0.67,2.01-6.05-0.67c0,0-1.35-15.43,8.74-14.08l4.04-0.67l3.36-5.37v-3.35c0,0-1.35-12.74-10.09-31.52
		c0,0-3.36-10.73-3.36-15.43c0,0-7.4-12.74-0.67-24.82l-0.67-2.68l-2.02-4.02c0,0-6.05-0.67-7.4-2.68c0,0-6.05,1.34-6.73,0.67
		c0,0-18.83,0-24.88-5.37c0,0-7.4-1.34-7.4-13.41c0,0,0-6.71,1.35-8.72c0,0-3.36-6.04,2.69-9.39l6.73-2.01c0,0-3.36-7.38,1.35-9.39
		l1.35-1.34l2.69-1.34l6.05-4.69c0,0,5.38-5.37,7.4-6.04c0,0-0.67-7.38,13.45-10.73c0,0-1.35,2.68,0.67,4.69L92.86,468.73z"/>
	<path class="st1" d="M183.99,601.2c0,0,2.69,0.67,3.36,0.67h5.11c0,0,0.94,0,0.94,2.01c0,2.01,0,1.31,0,1.31v2.33v3.54v1.77
		l-2.69,3.11l-4.04,4.02l-1.35,1.34v-5.37l-0.67-2.68l-0.67-3.81v-4.59V601.2z"/>
</g>
<g id="text">
	<rect x="16.43" y="207.78" class="st2" width="281.58" height="134.87"/>
	<text transform="matrix(1 0 0 1 16.4326 278.7747)"><tspan x="0" y="0" class="st0 st3 st4">DuDe</tspan><tspan x="0" y="57.6" class="st0 st3 st5">and The</tspan></text>
	<rect x="13.2" y="359.09" class="st2" width="194.35" height="88.16"/>
	<text transform="matrix(1 0 0 1 13.1973 430.0865)" class="st0 st3 st4">DoG</text>
</g>
</svg>
